<mxfile host="app.diagrams.net" modified="2020-06-24T07:28:24.533Z" agent="5.0 (Windows NT 10.0; Win64; x64) AppleWebKit/537.36 (KHTML, like Gecko) Chrome/83.0.4103.106 Safari/537.36" etag="QFqvkBoSPixuQxe6B2_a" version="13.3.0" type="github">
  <diagram id="j9nGPZAsP_pOaiWSSdV3" name="Page-1">
    <mxGraphModel dx="2062" dy="1123" grid="1" gridSize="10" guides="1" tooltips="1" connect="1" arrows="1" fold="1" page="1" pageScale="1" pageWidth="827" pageHeight="1169" math="0" shadow="0">
      <root>
        <mxCell id="0" />
        <mxCell id="1" parent="0" />
        <mxCell id="DYe7Pghc9VTrK5Fek2OI-3" value="Cloud Configuration" style="ellipse;shape=cloud;whiteSpace=wrap;html=1;verticalAlign=top;" vertex="1" parent="1">
          <mxGeometry x="50" y="30" width="700" height="220" as="geometry" />
        </mxCell>
        <mxCell id="DYe7Pghc9VTrK5Fek2OI-4" value="Cloud Configuration Service Bus" style="shape=cylinder;whiteSpace=wrap;html=1;boundedLbl=1;backgroundOutline=1;verticalAlign=bottom;" vertex="1" parent="1">
          <mxGeometry x="170" y="250" width="480" height="350" as="geometry" />
        </mxCell>
        <mxCell id="DYe7Pghc9VTrK5Fek2OI-11" value="Leiden" style="rounded=0;whiteSpace=wrap;html=1;" vertex="1" parent="1">
          <mxGeometry x="190" y="360" width="120" height="110" as="geometry" />
        </mxCell>
        <mxCell id="DYe7Pghc9VTrK5Fek2OI-12" value="HLT" style="rounded=0;whiteSpace=wrap;html=1;" vertex="1" parent="1">
          <mxGeometry x="480" y="370" width="120" height="110" as="geometry" />
        </mxCell>
        <mxCell id="DYe7Pghc9VTrK5Fek2OI-15" value="" style="group" vertex="1" connectable="0" parent="1">
          <mxGeometry x="80" y="730" width="220" height="220" as="geometry" />
        </mxCell>
        <mxCell id="DYe7Pghc9VTrK5Fek2OI-16" value="" style="group" vertex="1" connectable="0" parent="DYe7Pghc9VTrK5Fek2OI-15">
          <mxGeometry width="220" height="220" as="geometry" />
        </mxCell>
        <mxCell id="DYe7Pghc9VTrK5Fek2OI-6" value="StUFZKN Leiden Test" style="whiteSpace=wrap;html=1;aspect=fixed;verticalAlign=bottom;" vertex="1" parent="DYe7Pghc9VTrK5Fek2OI-16">
          <mxGeometry width="220" height="220" as="geometry" />
        </mxCell>
        <mxCell id="DYe7Pghc9VTrK5Fek2OI-7" value="ZKN_RH" style="whiteSpace=wrap;html=1;aspect=fixed;" vertex="1" parent="DYe7Pghc9VTrK5Fek2OI-16">
          <mxGeometry x="120" y="10" width="80" height="80" as="geometry" />
        </mxCell>
        <mxCell id="DYe7Pghc9VTrK5Fek2OI-8" value="ZKN_RS" style="whiteSpace=wrap;html=1;aspect=fixed;" vertex="1" parent="DYe7Pghc9VTrK5Fek2OI-16">
          <mxGeometry x="20" y="10" width="80" height="80" as="geometry" />
        </mxCell>
        <mxCell id="DYe7Pghc9VTrK5Fek2OI-9" value="ZKN_SNS" style="whiteSpace=wrap;html=1;aspect=fixed;" vertex="1" parent="DYe7Pghc9VTrK5Fek2OI-16">
          <mxGeometry x="20" y="110" width="80" height="80" as="geometry" />
        </mxCell>
        <mxCell id="DYe7Pghc9VTrK5Fek2OI-10" value="ZKN_SNH" style="whiteSpace=wrap;html=1;aspect=fixed;" vertex="1" parent="DYe7Pghc9VTrK5Fek2OI-16">
          <mxGeometry x="120" y="110" width="80" height="80" as="geometry" />
        </mxCell>
        <mxCell id="DYe7Pghc9VTrK5Fek2OI-17" value="" style="group" vertex="1" connectable="0" parent="1">
          <mxGeometry x="330" y="730" width="220" height="220" as="geometry" />
        </mxCell>
        <mxCell id="DYe7Pghc9VTrK5Fek2OI-18" value="" style="group" vertex="1" connectable="0" parent="DYe7Pghc9VTrK5Fek2OI-17">
          <mxGeometry width="220" height="220" as="geometry" />
        </mxCell>
        <mxCell id="DYe7Pghc9VTrK5Fek2OI-19" value="StUFZKN Leiden Prod" style="whiteSpace=wrap;html=1;aspect=fixed;verticalAlign=bottom;" vertex="1" parent="DYe7Pghc9VTrK5Fek2OI-18">
          <mxGeometry width="220" height="220" as="geometry" />
        </mxCell>
        <mxCell id="DYe7Pghc9VTrK5Fek2OI-20" value="ZKN_RH" style="whiteSpace=wrap;html=1;aspect=fixed;" vertex="1" parent="DYe7Pghc9VTrK5Fek2OI-18">
          <mxGeometry x="120" y="10" width="80" height="80" as="geometry" />
        </mxCell>
        <mxCell id="DYe7Pghc9VTrK5Fek2OI-21" value="ZKN_RS" style="whiteSpace=wrap;html=1;aspect=fixed;" vertex="1" parent="DYe7Pghc9VTrK5Fek2OI-18">
          <mxGeometry x="20" y="10" width="80" height="80" as="geometry" />
        </mxCell>
        <mxCell id="DYe7Pghc9VTrK5Fek2OI-22" value="ZKN_SNS" style="whiteSpace=wrap;html=1;aspect=fixed;" vertex="1" parent="DYe7Pghc9VTrK5Fek2OI-18">
          <mxGeometry x="20" y="110" width="80" height="80" as="geometry" />
        </mxCell>
        <mxCell id="DYe7Pghc9VTrK5Fek2OI-23" value="ZKN_SNH" style="whiteSpace=wrap;html=1;aspect=fixed;" vertex="1" parent="DYe7Pghc9VTrK5Fek2OI-18">
          <mxGeometry x="120" y="110" width="80" height="80" as="geometry" />
        </mxCell>
        <mxCell id="DYe7Pghc9VTrK5Fek2OI-24" value="" style="group" vertex="1" connectable="0" parent="1">
          <mxGeometry x="580" y="730" width="220" height="220" as="geometry" />
        </mxCell>
        <mxCell id="DYe7Pghc9VTrK5Fek2OI-25" value="" style="group" vertex="1" connectable="0" parent="DYe7Pghc9VTrK5Fek2OI-24">
          <mxGeometry width="220" height="220" as="geometry" />
        </mxCell>
        <mxCell id="DYe7Pghc9VTrK5Fek2OI-26" value="StUFZKN HLT Test" style="whiteSpace=wrap;html=1;aspect=fixed;verticalAlign=bottom;" vertex="1" parent="DYe7Pghc9VTrK5Fek2OI-25">
          <mxGeometry width="220" height="220" as="geometry" />
        </mxCell>
        <mxCell id="DYe7Pghc9VTrK5Fek2OI-27" value="ZKN_RH" style="whiteSpace=wrap;html=1;aspect=fixed;" vertex="1" parent="DYe7Pghc9VTrK5Fek2OI-25">
          <mxGeometry x="120" y="10" width="80" height="80" as="geometry" />
        </mxCell>
        <mxCell id="DYe7Pghc9VTrK5Fek2OI-28" value="ZKN_RS" style="whiteSpace=wrap;html=1;aspect=fixed;" vertex="1" parent="DYe7Pghc9VTrK5Fek2OI-25">
          <mxGeometry x="20" y="10" width="80" height="80" as="geometry" />
        </mxCell>
        <mxCell id="DYe7Pghc9VTrK5Fek2OI-29" value="ZKN_SNS" style="whiteSpace=wrap;html=1;aspect=fixed;" vertex="1" parent="DYe7Pghc9VTrK5Fek2OI-25">
          <mxGeometry x="20" y="110" width="80" height="80" as="geometry" />
        </mxCell>
        <mxCell id="DYe7Pghc9VTrK5Fek2OI-30" value="ZKN_SNH" style="whiteSpace=wrap;html=1;aspect=fixed;" vertex="1" parent="DYe7Pghc9VTrK5Fek2OI-25">
          <mxGeometry x="120" y="110" width="80" height="80" as="geometry" />
        </mxCell>
        <mxCell id="DYe7Pghc9VTrK5Fek2OI-32" style="edgeStyle=orthogonalEdgeStyle;rounded=0;orthogonalLoop=1;jettySize=auto;html=1;entryX=0.25;entryY=1;entryDx=0;entryDy=0;" edge="1" parent="1" source="DYe7Pghc9VTrK5Fek2OI-7" target="DYe7Pghc9VTrK5Fek2OI-11">
          <mxGeometry relative="1" as="geometry" />
        </mxCell>
        <mxCell id="DYe7Pghc9VTrK5Fek2OI-33" style="edgeStyle=orthogonalEdgeStyle;rounded=0;orthogonalLoop=1;jettySize=auto;html=1;exitX=0.5;exitY=0;exitDx=0;exitDy=0;" edge="1" parent="1" source="DYe7Pghc9VTrK5Fek2OI-9" target="DYe7Pghc9VTrK5Fek2OI-11">
          <mxGeometry relative="1" as="geometry" />
        </mxCell>
        <mxCell id="DYe7Pghc9VTrK5Fek2OI-34" style="edgeStyle=orthogonalEdgeStyle;rounded=0;orthogonalLoop=1;jettySize=auto;html=1;exitX=0.25;exitY=0;exitDx=0;exitDy=0;entryX=0;entryY=0.75;entryDx=0;entryDy=0;" edge="1" parent="1" source="DYe7Pghc9VTrK5Fek2OI-8" target="DYe7Pghc9VTrK5Fek2OI-11">
          <mxGeometry relative="1" as="geometry" />
        </mxCell>
        <mxCell id="DYe7Pghc9VTrK5Fek2OI-35" style="edgeStyle=orthogonalEdgeStyle;rounded=0;orthogonalLoop=1;jettySize=auto;html=1;exitX=0.5;exitY=0;exitDx=0;exitDy=0;entryX=0.75;entryY=1;entryDx=0;entryDy=0;" edge="1" parent="1" source="DYe7Pghc9VTrK5Fek2OI-10" target="DYe7Pghc9VTrK5Fek2OI-11">
          <mxGeometry relative="1" as="geometry" />
        </mxCell>
        <mxCell id="DYe7Pghc9VTrK5Fek2OI-36" style="edgeStyle=orthogonalEdgeStyle;rounded=0;orthogonalLoop=1;jettySize=auto;html=1;exitX=0.5;exitY=0;exitDx=0;exitDy=0;entryX=0.994;entryY=0.327;entryDx=0;entryDy=0;entryPerimeter=0;" edge="1" parent="1" source="DYe7Pghc9VTrK5Fek2OI-21" target="DYe7Pghc9VTrK5Fek2OI-11">
          <mxGeometry relative="1" as="geometry" />
        </mxCell>
        <mxCell id="DYe7Pghc9VTrK5Fek2OI-37" style="edgeStyle=orthogonalEdgeStyle;rounded=0;orthogonalLoop=1;jettySize=auto;html=1;entryX=1;entryY=0.5;entryDx=0;entryDy=0;" edge="1" parent="1" source="DYe7Pghc9VTrK5Fek2OI-20" target="DYe7Pghc9VTrK5Fek2OI-11">
          <mxGeometry relative="1" as="geometry" />
        </mxCell>
        <mxCell id="DYe7Pghc9VTrK5Fek2OI-38" style="edgeStyle=orthogonalEdgeStyle;rounded=0;orthogonalLoop=1;jettySize=auto;html=1;exitX=0;exitY=0.5;exitDx=0;exitDy=0;entryX=1;entryY=1;entryDx=0;entryDy=0;" edge="1" parent="1" source="DYe7Pghc9VTrK5Fek2OI-22" target="DYe7Pghc9VTrK5Fek2OI-11">
          <mxGeometry relative="1" as="geometry" />
        </mxCell>
        <mxCell id="DYe7Pghc9VTrK5Fek2OI-39" style="edgeStyle=orthogonalEdgeStyle;rounded=0;orthogonalLoop=1;jettySize=auto;html=1;exitX=0;exitY=0.5;exitDx=0;exitDy=0;entryX=0.994;entryY=0.685;entryDx=0;entryDy=0;entryPerimeter=0;" edge="1" parent="1" source="DYe7Pghc9VTrK5Fek2OI-23" target="DYe7Pghc9VTrK5Fek2OI-11">
          <mxGeometry relative="1" as="geometry" />
        </mxCell>
        <mxCell id="DYe7Pghc9VTrK5Fek2OI-42" style="edgeStyle=orthogonalEdgeStyle;rounded=0;orthogonalLoop=1;jettySize=auto;html=1;" edge="1" parent="1" source="DYe7Pghc9VTrK5Fek2OI-41" target="DYe7Pghc9VTrK5Fek2OI-11">
          <mxGeometry relative="1" as="geometry" />
        </mxCell>
        <mxCell id="DYe7Pghc9VTrK5Fek2OI-43" style="edgeStyle=orthogonalEdgeStyle;rounded=0;orthogonalLoop=1;jettySize=auto;html=1;exitX=1;exitY=0.5;exitDx=0;exitDy=0;" edge="1" parent="1" source="DYe7Pghc9VTrK5Fek2OI-41" target="DYe7Pghc9VTrK5Fek2OI-12">
          <mxGeometry relative="1" as="geometry" />
        </mxCell>
        <mxCell id="DYe7Pghc9VTrK5Fek2OI-41" value="Notifier" style="rounded=1;whiteSpace=wrap;html=1;" vertex="1" parent="1">
          <mxGeometry x="350" y="160" width="120" height="60" as="geometry" />
        </mxCell>
        <mxCell id="DYe7Pghc9VTrK5Fek2OI-45" style="edgeStyle=orthogonalEdgeStyle;rounded=0;orthogonalLoop=1;jettySize=auto;html=1;exitX=0.5;exitY=0;exitDx=0;exitDy=0;shape=link;" edge="1" parent="1" source="DYe7Pghc9VTrK5Fek2OI-26" target="DYe7Pghc9VTrK5Fek2OI-12">
          <mxGeometry relative="1" as="geometry" />
        </mxCell>
      </root>
    </mxGraphModel>
  </diagram>
</mxfile>
